# WaveFront *.obj file (generated by CINEMA 4D)

v -33.9220085144043 -19.42508888244629 -1.24482190608978
v 0 -19.42508888244629 -1.24482190608978
v 33.9220085144043 -19.42508888244629 -1.24482190608978
v -33.9220085144043 -0.28449022769928 -1.24482190608978
v 0 -0.28449022769928 -1.24482190608978
v 33.9220085144043 -0.28449022769928 -1.24482190608978
v -33.9220085144043 18.85610771179199 -1.24482190608978
v 0 18.85610771179199 -1.24482190608978
v 33.9220085144043 18.85610771179199 -1.24482190608978
# 9 vertices

vn 0 0 1
# 1 normal

vt 0 0 0
vt 0 0.5 0
vt 0.5 0.5 0
vt 0.5 0 0
vt 1 0.5 0
vt 1 0 0
vt 0 1 0
vt 0.5 1 0
vt 1 1 0
# 9 texture coordinates

o Plane
usemtl default
f 2/4/1 5/3/1 4/2/1 1/1/1
f 3/6/1 6/5/1 5/3/1 2/4/1
f 5/3/1 8/8/1 7/7/1 4/2/1
f 6/5/1 9/9/1 8/8/1 5/3/1

